{"title":"Fletch.Lives.1989.BRRip.XviD.MP3-RARBG","uid":13536874,"size":1267450877,"categoryP":"video","categoryS":"movies","magnet":"?xt=urn:btih:a45ed1ea55dd1de81c209ce42f3a8b3cd20dcb58&amp;dn=Fletch.Lives.1989.BRRip.XviD.MP3-RARBG&amp;tr=udp%3A%2F%2Ftracker.leechers-paradise.org%3A6969&amp;tr=udp%3A%2F%2Fzer0day.ch%3A1337&amp;tr=udp%3A%2F%2Fopen.demonii.com%3A1337&amp;tr=udp%3A%2F%2Ftracker.coppersurfer.tk%3A6969&amp;tr=udp%3A%2F%2Fexodus.desync.com%3A6969","seeders":1,"leechers":0,"uploader":null,"files":7,"time":1455445806,"description":"Video\r\nID                                       : 0\r\nFormat                                   : MPEG-4 Visual\r\nFormat profile                           :   \r\nFormat settings, BVOP                    : No\r\nFormat settings, QPel                    : No\r\nFormat settings, GMC                     : No warppoints\r\nFormat settings, Matrix                  : Default (H.263)\r\nCodec ID                                 : XVID\r\nCodec ID/Hint                            : XviD\r\nDuration                                 : 1h 35mn\r\nBit rate                                 : 1 551 Kbps\r\nWidth                                    : 720 pixels\r\nHeight                                   : 392 pixels\r\nDisplay aspect ratio                     : 1.85:1\r\nOriginal display aspect ratio            : 1.85:1\r\nFrame rate                               : 23.976 fps\r\nColor space                              : YUV\r\nChroma subsampling                       : 4:2:0\r\nBit depth                                : 8 bits\r\nScan type                                : Progressive\r\nCompression mode                         : Lossy\r\nBits/(Pixel*Frame)                       : 0.229\r\nStream size                              : 1.03 GiB (88%)\r\nTitle                                    : RARBG.COM - Fletch.Lives.1989.BRRip.XviD.MP3-RARBG\r\nWriting library                          : Lavc56.60.100\r\n\r\nAudio\r\nID                                       : 1\r\nFormat                                   : MPEG Audio\r\nFormat version                           : Version 1\r\nFormat profile                           : Layer 3\r\nMode                                     : Joint stereo\r\nCodec ID                                 : 55\r\nCodec ID/Hint                            : MP3\r\nDuration                                 : 1h 35mn\r\nBit rate mode                            : Constant\r\nBit rate                                 : 192 Kbps\r\nChannel(s)                               : 2 channels\r\nSampling rate                            : 48.0 KHz\r\nCompression mode                         : Lossy\r\nStream size                              : 130 MiB (11%)\r\nAlignment                                : Aligned on interleaves\r\nInterleave, duration                     : 24 ms (0.58 video frame)\r\nInterleave, preload duration             : 24 ms\r\nTitle                                    : RARBG.COM - Fletch.Lives.1989.BRRip.XviD.MP3-RARBG","torrent":{"xt":"urn:btih:a45ed1ea55dd1de81c209ce42f3a8b3cd20dcb58","amp;dn":"Fletch.Lives.1989.BRRip.XviD.MP3-RARBG","amp;tr":["udp%3A%2F%2Ftracker.leechers-paradise.org%3A6969","udp%3A%2F%2Fzer0day.ch%3A1337","udp%3A%2F%2Fopen.demonii.com%3A1337","udp%3A%2F%2Ftracker.coppersurfer.tk%3A6969","udp%3A%2F%2Fexodus.desync.com%3A6969"],"infoHash":"a45ed1ea55dd1de81c209ce42f3a8b3cd20dcb58","infoHashBuffer":{"type":"Buffer","data":[164,94,209,234,85,221,29,232,28,32,156,228,47,58,139,60,210,13,203,88]},"announce":[],"urlList":[]}}